<svg width="34" height="30" viewBox="0 0 34 30" fill="none" xmlns="http://www.w3.org/2000/svg">
<path fill-rule="evenodd" clip-rule="evenodd" d="M26.0666 5.39401C26.1333 5.51054 26.25 5.59378 26.4 5.59378C30.4 5.59378 33.6666 8.85683 33.6666 12.8524V22.7414C33.6666 26.737 30.4 30 26.4 30H7.59998C3.58331 30 0.333313 26.737 0.333313 22.7414V12.8524C0.333313 8.85683 3.58331 5.59378 7.59998 5.59378C7.73331 5.59378 7.86665 5.52719 7.91665 5.39401L8.01665 5.19423C8.0741 5.0733 8.13307 4.94909 8.19293 4.823C8.61931 3.92491 9.09102 2.93133 9.38331 2.34739C10.15 0.849057 11.45 0.0166482 13.0666 0H20.9166C22.5333 0.0166482 23.85 0.849057 24.6166 2.34739C24.8792 2.87185 25.2791 3.71667 25.6646 4.5309C25.7441 4.69884 25.823 4.86548 25.9 5.02775L26.0666 5.39401ZM24.85 11.7869C24.85 12.6193 25.5166 13.2852 26.35 13.2852C27.1833 13.2852 27.8666 12.6193 27.8666 11.7869C27.8666 10.9545 27.1833 10.2719 26.35 10.2719C25.5166 10.2719 24.85 10.9545 24.85 11.7869ZM14.1166 14.3674C14.9 13.5849 15.9166 13.1687 17 13.1687C18.0833 13.1687 19.1 13.5849 19.8666 14.3507C20.6333 15.1165 21.05 16.1321 21.05 17.2142C21.0333 19.4451 19.2333 21.2597 17 21.2597C15.9166 21.2597 14.9 20.8435 14.1333 20.0777C13.3666 19.3119 12.95 18.2963 12.95 17.2142V17.1976C12.9333 16.1487 13.35 15.1332 14.1166 14.3674ZM21.6166 21.8424C20.4333 23.0244 18.8 23.7569 17 23.7569C15.25 23.7569 13.6166 23.0744 12.3666 21.8424C11.1333 20.5938 10.45 18.9623 10.45 17.2142C10.4333 15.4828 11.1166 13.8513 12.35 12.6027C13.6 11.3541 15.25 10.6715 17 10.6715C18.75 10.6715 20.4 11.3541 21.6333 12.586C22.8666 13.8346 23.55 15.4828 23.55 17.2142C23.5333 19.0289 22.8 20.6604 21.6166 21.8424Z" fill="#333333"/>
</svg>
