<svg width="23" height="24" viewBox="0 0 23 24" fill="none" xmlns="http://www.w3.org/2000/svg">
<path d="M20.1043 4.1V10.9C20.1043 11.5983 19.9588 11.9575 19.7569 12.1557C19.5527 12.3561 19.1814 12.5 18.4672 12.5H14.5956C13.8814 12.5 13.5101 12.3561 13.3059 12.1557C13.104 11.9575 12.9585 11.5983 12.9585 10.9V4.1C12.9585 3.40172 13.104 3.04252 13.3059 2.84431C13.5101 2.64387 13.8814 2.5 14.5956 2.5H18.4672C19.1814 2.5 19.5527 2.64387 19.7569 2.84431C19.9588 3.04252 20.1043 3.40172 20.1043 4.1Z" fill="#0B3C49" stroke="#0B3C49"/>
<path d="M10.0418 13.1V19.9C10.0418 20.5983 9.89634 20.9575 9.69443 21.1557C9.49024 21.3561 9.11888 21.5 8.40475 21.5H4.53308C3.81895 21.5 3.44759 21.3561 3.2434 21.1557C3.04148 20.9575 2.896 20.5983 2.896 19.9V13.1C2.896 12.4017 3.04148 12.0425 3.2434 11.8443C3.44759 11.6439 3.81895 11.5 4.53308 11.5H8.40475C9.11888 11.5 9.49024 11.6439 9.69443 11.8443C9.89634 12.0425 10.0418 12.4017 10.0418 13.1Z" fill="#0B3C49" stroke="#0B3C49"/>
<path opacity="0.4" d="M20.6043 19.9V17.1C20.6043 15.6 19.991 15 18.4672 15H14.5956C13.0718 15 12.4585 15.6 12.4585 17.1V19.9C12.4585 21.4 13.0718 22 14.5956 22H18.4672C19.991 22 20.6043 21.4 20.6043 19.9Z" fill="#0B3C49"/>
<path opacity="0.4" d="M10.5418 6.9V4.1C10.5418 2.6 9.9285 2 8.40475 2H4.53308C3.00933 2 2.396 2.6 2.396 4.1V6.9C2.396 8.4 3.00933 9 4.53308 9H8.40475C9.9285 9 10.5418 8.4 10.5418 6.9Z" fill="#0B3C49"/>
</svg>
