<svg width="25" height="24" viewBox="0 0 25 24" fill="none" xmlns="http://www.w3.org/2000/svg">
<path d="M23.001 12.2331C23.001 11.3698 22.9296 10.7398 22.7749 10.0864H12.7153V13.983H18.62C18.501 14.9514 17.8582 16.4097 16.4296 17.3897L16.4096 17.5202L19.5902 19.9349L19.8106 19.9564C21.8343 18.1247 23.001 15.4297 23.001 12.2331" fill="#4285F4"/>
<path d="M12.7145 22.5001C15.6073 22.5001 18.0358 21.5667 19.8097 19.9567L16.4287 17.39C15.524 18.0083 14.3097 18.44 12.7145 18.44C9.88118 18.44 7.47645 16.6083 6.61923 14.0767L6.49358 14.0871L3.18632 16.5955L3.14307 16.7133C4.90495 20.1433 8.52399 22.5001 12.7145 22.5001Z" fill="#34A853"/>
<path d="M6.62022 14.0766C6.39403 13.4233 6.26313 12.7232 6.26313 11.9999C6.26313 11.2765 6.39403 10.5766 6.60832 9.92325L6.60233 9.78411L3.25361 7.23547L3.14405 7.28655C2.41789 8.7099 2.00122 10.3083 2.00122 11.9999C2.00122 13.6916 2.41789 15.2899 3.14405 16.7132L6.62022 14.0766" fill="#FBBC05"/>
<path d="M12.7145 5.55997C14.7264 5.55997 16.0835 6.41163 16.8574 7.12335L19.8812 4.23C18.0241 2.53834 15.6074 1.5 12.7145 1.5C8.52402 1.5 4.90496 3.85665 3.14307 7.28662L6.60734 9.92332C7.47647 7.39166 9.88122 5.55997 12.7145 5.55997" fill="#EB4335"/>
</svg>
