<svg width="23" height="24" viewBox="0 0 23 24" fill="none" xmlns="http://www.w3.org/2000/svg">
<path opacity="0.4" d="M20.5738 7.1985V7.2V16.8C20.5738 18.3006 20.1259 19.4664 19.3711 20.254C18.6186 21.0393 17.512 21.5 16.0904 21.5H13.6083C12.1868 21.5 11.0803 21.0393 10.3279 20.253C9.5731 19.4643 9.125 18.296 9.125 16.79V7.2C9.125 5.69944 9.57287 4.53356 10.3277 3.74595C11.0801 2.96075 12.1868 2.5 13.6083 2.5H16.1C17.5216 2.5 18.6281 2.96079 19.3792 3.7457C20.1326 4.53292 20.5782 5.69831 20.5738 7.1985Z" fill="white" stroke="white"/>
<path d="M4.36988 12.25H3.19818L4.00889 13.096L5.99264 15.166C6.08521 15.2626 6.08521 15.4375 5.99264 15.5341C5.91156 15.6187 5.77987 15.6187 5.69879 15.5341L2.48838 12.1841C2.3958 12.0875 2.3958 11.9126 2.48838 11.816L5.69879 8.46597C5.75007 8.41246 5.80495 8.39502 5.84931 8.39502C5.89317 8.39502 5.94238 8.41183 5.98684 8.45981L5.99557 8.46925L6.00478 8.47821C6.03425 8.50691 6.06447 8.56812 6.06447 8.65002C6.06447 8.72109 6.0405 8.78413 5.99264 8.83407L4.00889 10.9041L3.19818 11.75H4.36988H14.6145C14.7114 11.75 14.8332 11.8459 14.8332 12C14.8332 12.1541 14.7114 12.25 14.6145 12.25H4.36988Z" fill="white" stroke="white"/>
</svg>
