<svg width="23" height="24" viewBox="0 0 23 24" fill="none" xmlns="http://www.w3.org/2000/svg">
<path opacity="0.4" d="M16.8197 7.26872C16.7392 7.26043 16.6585 7.26043 16.5781 7.26872C15.3986 7.20872 14.4341 6.18709 14.4341 4.89C14.4341 3.55472 15.4674 2.5 16.7037 2.5C17.9321 2.5 18.9725 3.54623 18.9732 4.88848C18.9645 6.18767 17.9983 7.20874 16.8197 7.26872Z" fill="white" stroke="white"/>
<path opacity="0.4" d="M19.9236 14.7C18.8503 15.45 17.3457 15.73 15.9561 15.54C16.3203 14.72 16.512 13.81 16.5215 12.85C16.5215 11.85 16.3107 10.9 15.9082 10.07C17.3265 9.87004 18.8311 10.15 19.914 10.9C21.4282 11.94 21.4282 13.65 19.9236 14.7Z" fill="white"/>
<path opacity="0.4" d="M6.17179 7.77C6.23888 7.76 6.30596 7.76 6.37305 7.77C7.85846 7.72 9.03721 6.45 9.03721 4.89C9.03721 3.3 7.80096 2 6.26763 2C4.74388 2 3.49805 3.29 3.49805 4.89C3.50763 6.45 4.68638 7.72 6.17179 7.77Z" fill="white"/>
<path opacity="0.4" d="M6.27732 12.85C6.27732 13.82 6.47857 14.74 6.84273 15.57C5.49148 15.72 4.08273 15.42 3.04773 14.71C1.53357 13.66 1.53357 11.95 3.04773 10.9C4.07315 10.18 5.52023 9.88998 6.88107 10.05C6.48815 10.89 6.27732 11.84 6.27732 12.85Z" fill="white"/>
<path d="M11.6151 15.87C11.5384 15.86 11.4522 15.86 11.3659 15.87C9.6026 15.81 8.19385 14.3 8.19385 12.44C8.19385 10.54 9.6601 9 11.4905 9C13.3113 9 14.7872 10.54 14.7872 12.44C14.7872 14.3 13.388 15.81 11.6151 15.87Z" fill="white"/>
<path d="M8.50035 17.94C7.05327 18.95 7.05327 20.61 8.50035 21.61C10.1487 22.76 12.8512 22.76 14.4995 21.61C15.9466 20.6 15.9466 18.94 14.4995 17.94C12.8608 16.79 10.1583 16.79 8.50035 17.94Z" fill="white"/>
</svg>
