<svg width="23" height="24" viewBox="0 0 23 24" fill="none" xmlns="http://www.w3.org/2000/svg">
<path opacity="0.4" d="M19.3305 14.5104L19.3303 14.5112C18.9368 16.2761 18.369 17.4221 17.6118 18.0983C16.8748 18.7564 15.8848 19.0332 14.4824 18.8925L14.4824 18.8924L14.4741 18.8917C14.0267 18.8544 13.5364 18.7697 13.0021 18.6351L13.0006 18.6348L11.3906 18.2348L11.3902 18.2347C9.44491 17.7528 8.29311 17.0383 7.70221 16.0455C7.10842 15.0479 7.0053 13.6435 7.46451 11.5996L7.46457 11.5994L8.4036 7.40999C8.40362 7.40989 8.40364 7.40979 8.40367 7.40969C8.59085 6.57964 8.81102 5.87814 9.07729 5.31317L9.0773 5.31318L9.07868 5.31021C9.59828 4.18874 10.2681 3.53675 11.1292 3.22668C12.0124 2.90862 13.1762 2.92086 14.7344 3.30544L14.7358 3.30579L16.336 3.69575C16.3361 3.69576 16.3362 3.69578 16.3362 3.69579C18.2905 4.17279 19.4438 4.8874 20.0342 5.88054C20.628 6.87917 20.729 8.28597 20.2697 10.3304L19.3305 14.5104Z" fill="white" stroke="white"/>
<path d="M12.9306 19.6471C12.6515 19.7685 12.3482 19.8847 12.0193 19.9967L12.0181 19.9971L10.5069 20.5161C10.5064 20.5162 10.5059 20.5164 10.5054 20.5166C8.6521 21.1399 7.36612 21.1445 6.41682 20.6377C5.46156 20.1276 4.70531 19.0251 4.10009 17.0817C4.10005 17.0816 4.10001 17.0814 4.09997 17.0813L2.87363 13.1324C2.87359 13.1322 2.87356 13.1321 2.87352 13.132C2.274 11.1915 2.26244 9.82617 2.75546 8.81543C3.24565 7.81051 4.29887 7.02636 6.1491 6.40387L6.14911 6.40388L6.15207 6.40287L7.66355 5.88379C7.70833 5.86898 7.75264 5.85451 7.7965 5.8404C7.65764 6.25892 7.53627 6.71057 7.42816 7.18999L7.42802 7.19062L6.48891 11.3804C6.48889 11.3805 6.48887 11.3805 6.48886 11.3806C6.00896 13.5166 6.05441 15.2321 6.84299 16.557C7.63444 17.8867 9.09878 18.6971 11.1495 19.2052C11.1496 19.2052 11.1497 19.2053 11.1499 19.2053L12.758 19.6048C12.7582 19.6049 12.7584 19.605 12.7587 19.605C12.8163 19.6195 12.8736 19.6335 12.9306 19.6471Z" fill="white" stroke="white"/>
<path d="M16.7613 10.51C16.7038 10.51 16.6463 10.5 16.5792 10.49L11.9313 9.26002C11.548 9.16002 11.318 8.75002 11.4138 8.35002C11.5096 7.95002 11.9026 7.71002 12.2859 7.81002L16.9338 9.04002C17.3171 9.14002 17.5471 9.55002 17.4513 9.95002C17.3746 10.28 17.0776 10.51 16.7613 10.51Z" fill="white"/>
<path d="M13.9534 13.89C13.8959 13.89 13.8384 13.88 13.7713 13.87L10.9826 13.13C10.5992 13.03 10.3692 12.62 10.4651 12.22C10.5609 11.82 10.9538 11.58 11.3372 11.68L14.1259 12.42C14.5092 12.52 14.7392 12.93 14.6434 13.33C14.5667 13.67 14.2792 13.89 13.9534 13.89Z" fill="white"/>
</svg>
