<svg width="23" height="24" viewBox="0 0 23 24" fill="none" xmlns="http://www.w3.org/2000/svg">
<path opacity="0.4" d="M6.23618 4.20935L6.23591 4.20951C5.60498 4.58572 5.37352 5.45438 5.74643 6.12786L5.30903 6.37004L5.7461 6.12727C6.23248 7.00289 6.33526 7.90684 5.93836 8.62553C5.5374 9.35156 4.72068 9.72006 3.73734 9.72006C3.02874 9.72006 2.4165 10.3342 2.4165 11.1201V12.8801C2.4165 13.6659 3.02874 14.2801 3.73734 14.2801C4.72068 14.2801 5.5374 14.6486 5.93836 15.3746C6.33523 16.0932 6.23249 16.9971 5.7462 17.8727C5.37361 18.5461 5.6051 19.4145 6.23591 19.7906L6.23618 19.7908L7.8941 20.7808L7.90151 20.7852L7.90147 20.7853C8.39856 21.0939 9.06553 20.9259 9.38706 20.3647L9.49096 20.1775L9.49108 20.1773C9.97537 19.3054 10.6857 18.7426 11.5082 18.7426C12.3313 18.7426 13.0392 19.306 13.5188 20.1783C13.519 20.1787 13.5191 20.179 13.5193 20.1793L13.6222 20.3647C13.9437 20.9259 14.6107 21.0939 15.1078 20.7853L15.1151 20.7807L15.1152 20.7808L16.7731 19.7908L16.7734 19.7906C17.4034 19.4149 17.6366 18.5563 17.2624 17.8714C16.7767 16.9962 16.6742 16.0929 17.0709 15.3746C17.4719 14.6486 18.2886 14.2801 19.2719 14.2801C19.9805 14.2801 20.5928 13.6659 20.5928 12.8801V11.1201C20.5928 10.3277 19.9743 9.72006 19.2719 9.72006C18.2886 9.72006 17.4719 9.35156 17.0709 8.62553C16.6741 7.90695 16.7767 7.00316 17.2629 6.12766M6.23618 4.20935L17.0294 20.2201C17.9015 19.7001 18.1986 18.5401 17.7003 17.6301C16.8282 16.0601 17.5373 14.7801 19.2719 14.7801C20.2782 14.7801 21.0928 13.9201 21.0928 12.8801V11.1201C21.0928 10.0701 20.2686 9.22006 19.2719 9.22006C17.5373 9.22006 16.8282 7.94006 17.7003 6.37006C18.1986 5.47006 17.9015 4.30006 17.0294 3.78006L15.3715 2.79006C14.6144 2.32006 13.6369 2.60006 13.1865 3.39006M6.23618 4.20935L7.8941 3.21935L7.89413 3.21941L7.90147 3.21486C8.39856 2.90626 9.06552 3.0742 9.38705 3.63537M6.23618 4.20935L9.48994 3.8208M17.2629 6.12766C17.263 6.12753 17.2631 6.1274 17.2632 6.12727L17.7 6.36994L17.2628 6.12786C17.2629 6.12779 17.2629 6.12772 17.2629 6.12766ZM17.2629 6.12766C17.6357 5.45421 17.4042 4.58568 16.7734 4.20951L16.7731 4.20935L15.1152 3.21935L15.1077 3.21492L15.1078 3.21486C14.6107 2.90626 13.9437 3.0742 13.6222 3.6354M13.6222 3.6354L13.6237 3.63264L13.1865 3.39006M13.6222 3.6354C13.6217 3.63617 13.6213 3.63694 13.6209 3.63771L13.1865 3.39006M13.6222 3.6354L13.5183 3.82264L13.5182 3.82285C13.0339 4.69472 12.3236 5.25756 11.501 5.25756C10.678 5.25756 9.97 4.69413 9.49046 3.82174L9.49096 3.82264L9.92817 3.58006M13.1865 3.39006L13.0811 3.58006C12.209 5.15006 10.7907 5.15006 9.92817 3.58006M9.92817 3.58006L9.48994 3.8208M9.92817 3.58006L9.82275 3.39006M9.48994 3.8208L7.63775 2.79006C8.39484 2.32006 9.37234 2.60006 9.82275 3.39006M9.48994 3.8208L9.38705 3.63537M9.82275 3.39006L9.38554 3.63264L9.38705 3.63537M9.82275 3.39006L9.38839 3.63771C9.38795 3.63693 9.3875 3.63615 9.38705 3.63537" fill="white" stroke="white"/>
<path d="M14.1144 12C14.1144 13.5391 12.924 14.75 11.4998 14.75C10.0757 14.75 8.88525 13.5391 8.88525 12C8.88525 10.4609 10.0757 9.25 11.4998 9.25C12.924 9.25 14.1144 10.4609 14.1144 12Z" fill="white" stroke="white"/>
</svg>
