<?xml version="1.0" encoding="UTF-8"?>
<svg version="1.1" xmlns="http://www.w3.org/2000/svg" width="312" height="127">
<path d="M0 0 C26.4 0 52.8 0 80 0 C83.08174147 27.73567321 81.86674846 52.79973898 64.02124023 75.25854492 C58.98080435 81.31958314 53.49143977 86.49084553 47 91 C46.33484375 91.53367187 45.6696875 92.06734375 44.984375 92.6171875 C42.86395697 94.07389745 41.56626686 94.7623827 39 95 C25.16544144 90.17095598 13.44189511 74.50125488 7 62 C0.54337558 48.56140902 -2.17675869 35.44800851 -2.1875 20.625 C-2.20586914 19.30242188 -2.20586914 19.30242188 -2.22460938 17.953125 C-2.22654297 17.07398437 -2.22847656 16.19484375 -2.23046875 15.2890625 C-2.23457764 14.51256348 -2.23868652 13.73606445 -2.24291992 12.93603516 C-1.88206537 8.57459106 -0.8582722 4.29136102 0 0 Z M1 2 C-0.42426407 10.79133718 -0.42426407 10.79133718 0 27 C26.07 27 52.14 27 79 27 C80.21083237 24.57833526 80.04984886 23.22753678 79.9140625 20.53515625 C79.87023437 19.65279297 79.82640625 18.77042969 79.78125 17.86132812 C79.7296875 16.93771484 79.678125 16.01410156 79.625 15.0625 C79.58117187 14.14275391 79.53734375 13.22300781 79.4921875 12.27539062 C79.233512 7.05530446 79.233512 7.05530446 78 2 C52.59 2 27.18 2 1 2 Z M0 32 C0.96797982 34.52292612 1.44608401 35.74519864 3.953125 36.8984375 C9.12735734 37.97200271 11.96261304 37.82203358 17 36 C20.76721252 36.09132636 24.3955107 36.86429832 28.0625 37.6875 C31.76602987 38.08149254 34.50376971 37.1887183 38 36 C38.33 34.68 38.66 33.36 39 32 C38.34 32.165 37.68 32.33 37 32.5 C32.22801644 33.29533059 27.64367656 33.54789219 23 32 C19.31617231 31.86843473 16.50946415 31.83017862 13 33 C8.52121488 33.16901076 4.39644736 32.85784339 0 32 Z M41 32 C41.33 33.32 41.66 34.64 42 36 C48.17551909 37.8204478 51.7530263 37.93088278 58 36 C61.60038391 36.08292631 65.04826818 36.71448045 68.5 37.75 C72.37150901 38.1371509 75.49544927 36.53921955 79 35 C79 34.01 79 33.02 79 32 C78.34 32.165 77.68 32.33 77 32.5 C70.89888436 33.51685261 65.05635942 32.99215064 58.98046875 32.12109375 C56.78766058 31.86325956 56.78766058 31.86325956 54 33 C49.46395485 33.14632404 45.42546179 33.10636545 41 32 Z M39 37 C38.8040625 37.8971875 38.608125 38.794375 38.40625 39.71875 C35.19621528 53.11234314 29.87835364 65.34597563 21 76 C24.07176659 82.81455015 29.90791284 87.20027408 36.0078125 91.25 C38.7759737 92.29213128 40.19991769 91.92074779 43 91 C49.24264414 87.24185647 54.71713458 82.90740058 59 77 C58.57589844 76.44054687 58.15179688 75.88109375 57.71484375 75.3046875 C49.02930619 63.43127132 43.95002871 51.01623092 40 37 C39.67 37 39.34 37 39 37 Z M10.23828125 42.55078125 C7.30473216 43.13953892 4.8724472 42.75590716 2 42 C2.33 43.32 2.66 44.64 3 46 C4.60320974 46.19551338 6.20762986 46.38111983 7.8125 46.5625 C8.70582031 46.66691406 9.59914063 46.77132812 10.51953125 46.87890625 C13.13375572 47.15658709 13.13375572 47.15658709 16 46 C21.11652577 45.82356808 25.95481482 46.15281416 31.01953125 46.87890625 C33.21233942 47.13674044 33.21233942 47.13674044 36 46 C36.73323796 43.98491642 36.73323796 43.98491642 37 42 C35.906875 42.20625 34.81375 42.4125 33.6875 42.625 C30.06517318 43.10414376 27.18249416 42.73199016 23.625 41.9375 C18.67869489 40.89472833 15.09659076 41.33426675 10.23828125 42.55078125 Z M53.625 42.0625 C49.78266918 42.97068729 46.87934266 42.99470325 43 42 C43.33 43.32 43.66 44.64 44 46 C45.43640171 46.19573608 46.87419504 46.38127816 48.3125 46.5625 C49.11300781 46.66691406 49.91351563 46.77132812 50.73828125 46.87890625 C53.16817116 47.14755178 53.16817116 47.14755178 56 46 C61.10954616 45.82380875 65.87737617 46.16000693 70.921875 46.9765625 C73.50877985 47.00573812 74.86357386 46.43976544 77 45 C77.33 44.01 77.66 43.02 78 42 C77.14728516 42.14308594 77.14728516 42.14308594 76.27734375 42.2890625 C70.91758107 43.05857768 67.21675093 42.73891698 62 41 C58.72949637 41 56.68875653 41.25087327 53.625 42.0625 Z M13 52 C11.60560336 52.06665376 10.20830125 52.08538199 8.8125 52.0625 C6.9253125 52.0315625 6.9253125 52.0315625 5 52 C5.33 53.32 5.66 54.64 6 56 C8.94854558 57.17941823 10.13532934 56.9583602 13.25 56 C18.51039386 54.5972283 22.52099728 55.39402156 27.8125 56.6875 C30.28845415 57.2892713 30.28845415 57.2892713 33 55 C33 54.34 33 53.68 33 53 C23.00612802 50.62431279 23.00612802 50.62431279 13 52 Z M46 53 C46.33 53.99 46.66 54.98 47 56 C48.72476911 56.95502158 48.72476911 56.95502158 51 57 C51.886875 56.67 52.77375 56.34 53.6875 56 C58.87994149 54.43247049 63.67034395 55.44290833 68.875 56.6875 C71.29667695 57.28600028 71.29667695 57.28600028 74 55 C74 54.34 74 53.68 74 53 C64.00238253 50.97516608 55.96467963 50.75443839 46 53 Z M10 62 C10.33 62.99 10.66 63.98 11 65 C16.61 65 22.22 65 28 65 C28.33 64.01 28.66 63.02 29 62 C21.97410081 60.32101674 16.89640212 59.65782569 10 62 Z M51 62 C51.33 63.32 51.66 64.64 52 66 C52.52078125 65.83628906 53.0415625 65.67257813 53.578125 65.50390625 C56.6756875 64.85941341 59.58841094 64.90588411 62.75 64.9375 C64.50570312 64.95103516 64.50570312 64.95103516 66.296875 64.96484375 C67.18890625 64.97644531 68.0809375 64.98804687 69 65 C69 64.01 69 63.02 69 62 C62.1261243 59.88496132 57.8738757 59.88496132 51 62 Z M16 70 C16 70.99 16 71.98 16 73 C18.31 73 20.62 73 23 73 C23 72.01 23 71.02 23 70 C20.69 70 18.38 70 16 70 Z M56 70 C56.33 70.99 56.66 71.98 57 73 C58.98 73 60.96 73 63 73 C63.33 72.01 63.66 71.02 64 70 C61.36 70 58.72 70 56 70 Z " fill="#2C3661" transform="translate(28,17)"/>
<path d="M0 0 C8.91 0 17.82 0 27 0 C27 2.31 27 4.62 27 7 C20.73 7 14.46 7 8 7 C8 10.3 8 13.6 8 17 C13.61 17 19.22 17 25 17 C25 18.98 25 20.96 25 23 C19.39 23 13.78 23 8 23 C8 26.63 8 30.26 8 34 C14.27 34 20.54 34 27 34 C27 36.31 27 38.62 27 41 C18.09 41 9.18 41 0 41 C0 27.47 0 13.94 0 0 Z " fill="#293468" transform="translate(263,40)"/>
<path d="M0 0 C2.31 0 4.62 0 7 0 C7.01981934 0.82201904 7.03963867 1.64403809 7.06005859 2.4909668 C7.15544603 6.22346126 7.26507089 9.9554067 7.375 13.6875 C7.4059375 14.98107422 7.436875 16.27464844 7.46875 17.60742188 C7.50742188 18.85458984 7.54609375 20.10175781 7.5859375 21.38671875 C7.6173584 22.53358154 7.6487793 23.68044434 7.68115234 24.86206055 C7.99423652 27.94327872 8.69670803 30.2082114 10 33 C11.85625 33.3403125 11.85625 33.3403125 13.75 33.6875 C14.79414063 33.87892578 14.79414063 33.87892578 15.859375 34.07421875 C18.8795964 33.96950304 19.88671988 33.15012706 22 31 C22.64654208 27.71366396 22.64654208 27.71366396 22.609375 23.92578125 C22.62591125 23.2419487 22.64244751 22.55811615 22.65948486 21.8535614 C22.7080032 19.67311664 22.72934191 17.4933693 22.75 15.3125 C22.77815685 13.83264713 22.8080839 12.3528268 22.83984375 10.87304688 C22.91375987 7.24885017 22.96331252 3.62478626 23 0 C25.64 0 28.28 0 31 0 C33.23482224 28.32788192 33.23482224 28.32788192 28.125 36.75 C25.18706936 39.86075009 23.22962872 40.87907866 18.94140625 41.30078125 C17.82636719 41.30464844 16.71132812 41.30851562 15.5625 41.3125 C14.45003906 41.32925781 13.33757812 41.34601563 12.19140625 41.36328125 C7.81366384 40.86495806 5.18133277 39.30790413 2.25 36.0625 C-0.28770678 31.87528382 -0.1180956 27.87056197 -0.09765625 23.046875 C-0.0962413 22.38665344 -0.09482635 21.72643188 -0.09336853 21.04620361 C-0.08779245 18.94742206 -0.07524447 16.84874905 -0.0625 14.75 C-0.0574819 13.32291821 -0.05291954 11.89583475 -0.04882812 10.46875 C-0.03783088 6.97913168 -0.0205828 3.48957644 0 0 Z " fill="#293468" transform="translate(161,40)"/>
<path d="M0 0 C3.856875 -0.0825 7.71375 -0.165 11.6875 -0.25 C13.4986731 -0.30462402 13.4986731 -0.30462402 15.34643555 -0.36035156 C23.22433268 -0.44215872 23.22433268 -0.44215872 27.20703125 1.828125 C30.27174822 5.54050547 30.33420941 9.09090406 30.2890625 13.7109375 C29.84466358 17.23009651 28.26573627 19.3458518 26 22 C22.31602884 24.45598077 19.55276192 24.2271532 15.3125 24.125 C12.899375 24.08375 10.48625 24.0425 8 24 C8 29.28 8 34.56 8 40 C5.36 40 2.72 40 0 40 C0 26.8 0 13.6 0 0 Z M8 6 C8 9.96 8 13.92 8 18 C10.6296875 18.061875 10.6296875 18.061875 13.3125 18.125 C14.79169922 18.15980469 14.79169922 18.15980469 16.30078125 18.1953125 C19.22406527 18.20682639 19.22406527 18.20682639 22 16 C22.43827201 14.09542071 22.43827201 14.09542071 22.3125 12 C22.30863281 11.29875 22.30476563 10.5975 22.30078125 9.875 C22.14912946 7.7583423 22.14912946 7.7583423 20 6 C15.98805634 5.72216457 12.02552638 5.9143505 8 6 Z " fill="#293365" transform="translate(125,41)"/>
<path d="M0 0 C0.804375 0.721875 1.60875 1.44375 2.4375 2.1875 C2.4375 3.5075 2.4375 4.8275 2.4375 6.1875 C1.7775 6.8475 1.1175 7.5075 0.4375 8.1875 C-2.57555957 7.79871812 -3.95935311 6.92293126 -6.5625 5.1875 C-11.89718429 4.80285105 -11.89718429 4.80285105 -16.5625 7.1875 C-16.2325 8.8375 -15.9025 10.4875 -15.5625 12.1875 C-14.69367188 12.41824219 -13.82484375 12.64898437 -12.9296875 12.88671875 C-0.58786306 16.37942746 -0.58786306 16.37942746 3.4375 21.1875 C4.75883999 25.38469762 4.59262287 27.64913239 3.375 31.875 C1.00850288 35.92094669 -0.23323616 37.321438 -4.5625 39.1875 C-10.13270159 39.87491674 -16.2961202 40.5199141 -21.25 37.4375 C-23.35384513 35.39051555 -24.58200037 33.93289897 -25.5625 31.1875 C-24.3125 29.625 -24.3125 29.625 -22.5625 28.1875 C-19.87726642 28.36651557 -18.4409082 29.26749461 -16.1875 30.75 C-13.02887228 32.47972471 -11.1159063 32.57373982 -7.5625 32.1875 C-6.5725 31.5275 -5.5825 30.8675 -4.5625 30.1875 C-4.3122843 27.10384129 -4.3122843 27.10384129 -4.5625 24.1875 C-6.09970703 23.73310547 -6.09970703 23.73310547 -7.66796875 23.26953125 C-9.02890028 22.84717319 -10.38956353 22.42394997 -11.75 22 C-12.42353516 21.80341797 -13.09707031 21.60683594 -13.79101562 21.40429688 C-18.48079815 19.91729266 -21.4312182 18.15975463 -24.5625 14.1875 C-25.65755932 10.48362288 -25.3543508 6.83399152 -23.67578125 3.34375 C-21.59254614 0.51996287 -19.4923689 -0.84351953 -16.3125 -2.25 C-10.1891606 -3.16850091 -5.55429077 -2.82586724 0 0 Z " fill="#293365" transform="translate(252.5625,41.8125)"/>
<path d="M0 0 C2.64 0 5.28 0 8 0 C8 11.22 8 22.44 8 34 C13.28 34 18.56 34 24 34 C24 36.31 24 38.62 24 41 C16.08 41 8.16 41 0 41 C0 27.47 0 13.94 0 0 Z " fill="#273266" transform="translate(200,40)"/>
<path d="M0 0 C2.86650972 3.00633946 3.83397054 4.98306957 4.5 9.0625 C3.87901643 12.7107785 2.5549379 14.36991687 0 17 C-3.22878519 18.6143926 -6.50903682 18.5818272 -10 18 C-13.64184981 15.44295652 -14.77792202 13.77727291 -16 9.5 C-16 5.5573648 -15.49535546 4.0116359 -13 1 C-8.70283326 -1.66625911 -4.7474589 -1.48956967 0 0 Z " fill="#2D3868" transform="translate(74,84)"/>
<path d="M0 0 C3.64184981 2.55704348 4.77792202 4.22272709 6 8.5 C6 12.4426352 5.49535546 13.9883641 3 17 C-0.42159595 19.56619697 -3.84844133 19.50984054 -8 19 C-11.54264431 16.45853778 -12.77457662 14.72931094 -14.0625 10.5625 C-13.98541095 6.16842411 -12.78058336 4.33670003 -10 1 C-6.77121481 -0.6143926 -3.49096318 -0.5818272 0 0 Z " fill="#2E386C" transform="translate(98,22)"/>
<path d="M0 0 C2.67053572 2.09827807 3.59295435 4.20834875 4.75 7.375 C4.83823493 11.69851136 4.06275341 13.03246055 1.125 16.25 C-2.82779902 18.73879938 -4.66586264 19.12513157 -9.25 18.375 C-12.00329021 16.57937595 -13.77627461 15.32245078 -15.25 12.375 C-15.64447548 8.19355989 -15.70035186 6.06553952 -13.375 2.5 C-9.47164063 -1.40335937 -5.27098935 -1.46416371 0 0 Z " fill="#2E396B" transform="translate(73.25,22.625)"/>
<path d="M0 0 C2.75329021 1.79562405 4.52627461 3.05254922 6 6 C6.39447548 10.18144011 6.45035186 12.30946048 4.125 15.875 C1.39955109 18.60044891 0.56499391 18.94669869 -3.3125 19.3125 C-7.57536111 18.95124058 -9.01992054 17.98007946 -12 15 C-13.55024464 11.89951072 -13.28992015 9.42105782 -13 6 C-9.30920537 0.34078157 -6.6962915 -0.56748233 0 0 Z " fill="#2E3969" transform="translate(45,22)"/>
<path d="M0 0 C26.4 0 52.8 0 80 0 C82 18 82 18 82 26 C80.515 26.495 80.515 26.495 79 27 C79.01160156 26.45214844 79.02320312 25.90429688 79.03515625 25.33984375 C79.12489287 17.45584076 78.53036046 9.95540688 78 2 C52.59 2 27.18 2 1 2 C0.67 7.94 0.34 13.88 0 20 C-0.66 20.99 -1.32 21.98 -2 23 C-2.05524131 21.04200257 -2.093338 19.08352063 -2.125 17.125 C-2.14820312 16.03445312 -2.17140625 14.94390625 -2.1953125 13.8203125 C-2 10 -2 10 0 0 Z " fill="#28324A" transform="translate(28,17)"/>
<path d="M0 0 C0.33 0 0.66 0 1 0 C1.78691843 13.45969546 2.07099711 26.55303631 1 40 C9.25 40 17.5 40 26 40 C25.505 37.525 25.505 37.525 25 35 C15.595 35.495 15.595 35.495 6 36 C6 33.22003893 6.21297929 30.57507433 6.5 27.8125 C6.5928125 26.91144531 6.685625 26.01039062 6.78125 25.08203125 C6.8534375 24.39496094 6.925625 23.70789063 7 23 C7.33 23 7.66 23 8 23 C8 26.63 8 30.26 8 34 C14.27 34 20.54 34 27 34 C27 36.31 27 38.62 27 41 C18.09 41 9.18 41 0 41 C0 27.47 0 13.94 0 0 Z " fill="#282F52" transform="translate(263,40)"/>
<path d="M0 0 C0 0.66 0 1.32 0 2 C-0.66 2 -1.32 2 -2 2 C-2.66 3.32 -3.32 4.64 -4 6 C-4.66 6 -5.32 6 -6 6 C-5.71872579 7.48117801 -5.42466268 8.95993249 -5.125 10.4375 C-4.96257812 11.26121094 -4.80015625 12.08492187 -4.6328125 12.93359375 C-4.42398438 13.61550781 -4.21515625 14.29742187 -4 15 C-0.85658007 16.57170996 2.55771451 16.23175783 6 16 C6.99 15.67 7.98 15.34 9 15 C9.61067144 13.14255793 9.61067144 13.14255793 10 11 C10.63654342 9.6520257 11.29605388 8.31403276 12 7 C11.50958904 13.37534247 11.50958904 13.37534247 9.0625 16.375 C5.33059306 19.31529031 2.74471787 19.48251368 -2 19 C-5.54264431 16.45853778 -6.77457662 14.72931094 -8.0625 10.5625 C-7.98541095 6.16842411 -6.78058336 4.33670003 -4 1 C-2 0 -2 0 0 0 Z " fill="#2C3457" transform="translate(92,22)"/>
<path d="M0 0 C3.96 0 7.92 0 12 0 C12.33896268 2.83275953 12.67129694 5.66604661 13 8.5 C13.09539062 9.29148437 13.19078125 10.08296875 13.2890625 10.8984375 C13.87107882 15.97029404 14.09367085 20.89493859 14 26 C13.01 26.33 12.02 26.66 11 27 C11.01160156 26.45214844 11.02320312 25.90429688 11.03515625 25.33984375 C11.12413845 17.5221215 10.58179271 9.7918667 10 2 C8.3603125 2.061875 8.3603125 2.061875 6.6875 2.125 C3 2 3 2 0 0 Z " fill="#232C48" transform="translate(96,17)"/>
<path d="M0 0 C1.258125 0.12375 2.51625 0.2475 3.8125 0.375 C4.87404297 0.47941406 4.87404297 0.47941406 5.95703125 0.5859375 C8 1 8 1 11 3 C10.67 3.99 10.34 4.98 10 6 C12.64 6.33 15.28 6.66 18 7 C15.43313594 8.68644209 14.22051942 9.02390454 11.1171875 8.6875 C10.04726563 8.460625 8.97734375 8.23375 7.875 8 C1.73816818 6.90438483 -3.04887604 7.25362051 -9 9 C-6.16346212 6.16346212 -3.02992888 5.78838868 0.78515625 4.78125 C3.17640092 4.22613754 3.17640092 4.22613754 4 2 C2.68 1.34 1.36 0.68 0 0 Z " fill="#262D55" transform="translate(45,52)"/>
<path d="M0 0 C2.64 0 5.28 0 8 0 C8 4.95 8 9.9 8 15 C7.67 15 7.34 15 7 15 C7 10.38 7 5.76 7 1 C5.02 1 3.04 1 1 1 C1.33 11.56 1.66 22.12 2 33 C-0.475 33.495 -0.475 33.495 -3 34 C-2.34 33.01 -1.68 32.02 -1 31 C-0.62967783 27.70229658 -0.62967783 27.70229658 -0.5859375 23.92578125 C-0.55688828 22.90003242 -0.55688828 22.90003242 -0.5272522 21.8535614 C-0.46756003 19.67333375 -0.42111369 17.49305298 -0.375 15.3125 C-0.33681057 13.8326595 -0.29775826 12.352841 -0.2578125 10.87304688 C-0.16186798 7.2488995 -0.07779849 3.62458743 0 0 Z " fill="#242D57" transform="translate(184,40)"/>
<path d="M0 0 C2.49609375 -0.3984375 2.49609375 -0.3984375 5.4375 -0.375 C6.40558594 -0.38273437 7.37367188 -0.39046875 8.37109375 -0.3984375 C11 0 11 0 12.8671875 1.35546875 C14 3 14 3 13.6875 5.6875 C13.460625 6.450625 13.23375 7.21375 13 8 C12.45859375 7.52949219 11.9171875 7.05898438 11.359375 6.57421875 C8.60698528 4.73777329 6.50442793 4.31616146 3.25 3.8125 C1.77273437 3.57466797 1.77273437 3.57466797 0.265625 3.33203125 C-0.48203125 3.22246094 -1.2296875 3.11289062 -2 3 C-1.34 2.01 -0.68 1.02 0 0 Z " fill="#293570" transform="translate(239,41)"/>
<path d="M0 0 C0.33 0.99 0.66 1.98 1 3 C-1.49064888 3.68707555 -3.37886292 4 -6 4 C-6.33 4.99 -6.66 5.98 -7 7 C-13.50381098 7.36814024 -13.50381098 7.36814024 -15.9375 5.5625 C-17 4 -17 4 -17 3 C-16.05125 3.04125 -15.1025 3.0825 -14.125 3.125 C-10.89755144 3.34973818 -10.89755144 3.34973818 -9 1 C-6.8359375 0.5859375 -6.8359375 0.5859375 -4.375 0.375 C-3.55773437 0.30023438 -2.74046875 0.22546875 -1.8984375 0.1484375 C-1.27195312 0.09945312 -0.64546875 0.05046875 0 0 Z " fill="#2E396A" transform="translate(108,43)"/>
<path d="M0 0 C0.33 0.99 0.66 1.98 1 3 C-1.88211302 3.96070434 -3.69850044 4.10581883 -6.6875 4.0625 C-7.89986328 4.04896484 -7.89986328 4.04896484 -9.13671875 4.03515625 C-10.05904297 4.01775391 -10.05904297 4.01775391 -11 4 C-10.67 2.68 -10.34 1.36 -10 0 C-6.42355152 -1.2380014 -3.66305234 -0.74926071 0 0 Z " fill="#2C376A" transform="translate(65,55)"/>
<path d="M0 0 C7.42857143 -0.14285714 7.42857143 -0.14285714 11 1 C10.67 2.65 10.34 4.3 10 6 C6.58978257 5.21302675 3.31114834 4.12880057 0 3 C0 2.01 0 1.02 0 0 Z " fill="#2B376A" transform="translate(85,82)"/>
<path d="M0 0 C0.66 1.32 1.32 2.64 2 4 C0.39602723 4.16852247 -1.2081869 4.33474886 -2.8125 4.5 C-3.70582031 4.5928125 -4.59914063 4.685625 -5.51953125 4.78125 C-8 5 -8 5 -11 5 C-11.33 4.01 -11.66 3.02 -12 2 C-7.8803623 0.70756464 -4.33168317 -0.26252625 0 0 Z " fill="#32376B" transform="translate(51,82)"/>
<path d="M0 0 C3.49861602 0.57417112 5.04783182 1.73519043 7.4375 4.3125 C10.13224844 7.13501668 12.88175954 9.63769662 16 12 C15.01 12.33 14.02 12.66 13 13 C11.01752198 11.21188257 9.03896272 9.41974481 7.0625 7.625 C6.49853516 7.11710937 5.93457031 6.60921875 5.35351562 6.0859375 C1.11328125 2.2265625 1.11328125 2.2265625 0 0 Z " fill="#2A354D" transform="translate(47,95)"/>
<path d="M0 0 C0.99 0.33 1.98 0.66 3 1 C2.34 1 1.68 1 1 1 C3.40436026 4.60654039 4.94679607 4.85452932 9 6 C5.98968256 6.93423645 5.13349732 7.04449911 2 6 C2 7.32 2 8.64 2 10 C2.66 10.33 3.32 10.66 4 11 C3.67 12.65 3.34 14.3 3 16 C-0.42724441 10.85913339 -0.1015597 5.99202204 0 0 Z " fill="#2E3251" transform="translate(27,48)"/>
<path d="M0 0 C0 0.99 0 1.98 0 3 C-3.80024367 6.03877162 -6.84680215 6.38389836 -11.625 6.3125 C-13.31496094 6.30669922 -13.31496094 6.30669922 -15.0390625 6.30078125 C-18 6 -18 6 -21 4 C-19.86111328 4.01740234 -19.86111328 4.01740234 -18.69921875 4.03515625 C-17.70535156 4.04417969 -16.71148437 4.05320312 -15.6875 4.0625 C-14.70136719 4.07410156 -13.71523437 4.08570312 -12.69921875 4.09765625 C-9.90036151 4.12329862 -9.90036151 4.12329862 -7 3 C-6.01 3.33 -5.02 3.66 -4 4 C-3.67 3.01 -3.34 2.02 -3 1 C-2.01 0.67 -1.02 0.34 0 0 Z " fill="#293156" transform="translate(188,75)"/>
<path d="M0 0 C2.61195332 0.95771622 3.81684312 1.72526468 5.375 4.0625 C6.26995438 8.26878557 5.53589987 11.99916815 4 16 C2.41796875 17.7734375 2.41796875 17.7734375 1 19 C0.34 18.67 -0.32 18.34 -1 18 C-0.67 17.34 -0.34 16.68 0 16 C0.66 16 1.32 16 2 16 C2.19658808 14.58456585 2.38187546 13.16755969 2.5625 11.75 C2.66691406 10.96109375 2.77132812 10.1721875 2.87890625 9.359375 C3.08475243 5.34869456 2.23676291 3.35514436 0 0 Z " fill="#2A3059" transform="translate(251,60)"/>
<path d="M0 0 C0.99 0.33 1.98 0.66 3 1 C3 1.66 3 2.32 3 3 C6.63 3 10.26 3 14 3 C11 6 11 6 7.625 6.5 C3.16059974 5.88422065 1.81434635 4.4113289 -1 1 C-0.67 0.67 -0.34 0.34 0 0 Z " fill="#31395B" transform="translate(60,35)"/>
<path d="M0 0 C0 0.66 0 1.32 0 2 C-0.66 2 -1.32 2 -2 2 C-2.66 3.32 -3.32 4.64 -4 6 C-4.66 6 -5.32 6 -6 6 C-6 8.31 -6 10.62 -6 13 C-6.66 12.67 -7.32 12.34 -8 12 C-7.74297526 7.6305794 -7.39976667 5.48177009 -4.5625 2.0625 C-2 0 -2 0 0 0 Z " fill="#33395E" transform="translate(92,22)"/>
<path d="M0 0 C3 1 3 1 4.75 3.6875 C6.14124787 7.37430684 5.98410592 9.24250465 5 13 C4.01 13 3.02 13 2 13 C2.66 12.67 3.32 12.34 4 12 C3.690625 11.443125 3.38125 10.88625 3.0625 10.3125 C1.93727674 7.86348466 1.47463077 5.64437145 1 3 C0.67 2.01 0.34 1.02 0 0 Z " fill="#2B345A" transform="translate(72,23)"/>
<path d="M0 0 C0.99 0.33 1.98 0.66 3 1 C3 1.99 3 2.98 3 4 C6.3 3.67 9.6 3.34 13 3 C9.43688534 5.672336 7.15414253 6.77263971 3 8 C2.01 5.36 1.02 2.72 0 0 Z " fill="#333854" transform="translate(72,69)"/>
<path d="M0 0 C1.670625 0.061875 1.670625 0.061875 3.375 0.125 C3.705 1.115 4.035 2.105 4.375 3.125 C3.715 3.785 3.055 4.445 2.375 5.125 C-0.265 4.135 -2.905 3.145 -5.625 2.125 C-3.625 0.125 -3.625 0.125 0 0 Z " fill="#30396F" transform="translate(95.625,73.875)"/>
<path d="M0 0 C2.3828125 0.2421875 2.3828125 0.2421875 5.125 0.875 C6.03507813 1.07867187 6.94515625 1.28234375 7.8828125 1.4921875 C8.58148438 1.65976562 9.28015625 1.82734375 10 2 C10 2.33 10 2.66 10 3 C6.37 3 2.74 3 -1 3 C-1 5.97 -1 8.94 -1 12 C-1.33 12 -1.66 12 -2 12 C-2.05395478 10.37536158 -2.09277195 8.75021459 -2.125 7.125 C-2.14820313 6.22007813 -2.17140625 5.31515625 -2.1953125 4.3828125 C-2 2 -2 2 0 0 Z " fill="#252C56" transform="translate(134,44)"/>
<path d="M0 0 C0.99 0.33 1.98 0.66 3 1 C3 1.99 3 2.98 3 4 C3.99 4.66 4.98 5.32 6 6 C5.34 6 4.68 6 4 6 C4.33 7.65 4.66 9.3 5 11 C4.34 11 3.68 11 3 11 C2.49384702 9.73160474 1.99530901 8.46016898 1.5 7.1875 C1.2215625 6.47980469 0.943125 5.77210937 0.65625 5.04296875 C0 3 0 3 0 0 Z " fill="#26304E" transform="translate(69,58)"/>
<path d="M0 0 C2.31 0 4.62 0 7 0 C7 1.32 7 2.64 7 4 C5.35 4 3.7 4 2 4 C1.34 2.68 0.68 1.36 0 0 Z " fill="#2C386F" transform="translate(30,45)"/>
<path d="M0 0 C4.24480464 -0.33292585 6.35542625 -0.43885872 9.9375 2 C10.618125 2.66 11.29875 3.32 12 4 C11.67 4.66 11.34 5.32 11 6 C9.0625 5.6875 9.0625 5.6875 7 5 C6.67 4.01 6.34 3.02 6 2 C3.03 1.505 3.03 1.505 0 1 C0 0.67 0 0.34 0 0 Z " fill="#2F365A" transform="translate(38,22)"/>
<path d="M0 0 C0.66 0.66 1.32 1.32 2 2 C-1.465 4.97 -1.465 4.97 -5 8 C-5.66 7.34 -6.32 6.68 -7 6 C-4.69 4.02 -2.38 2.04 0 0 Z " fill="#292D49" transform="translate(86,95)"/>
<path d="M0 0 C2.0625 0.4375 2.0625 0.4375 4 1 C4 1.99 4 2.98 4 4 C3.67 3.34 3.34 2.68 3 2 C2.01 2 1.02 2 0 2 C0 3.65 0 5.3 0 7 C-0.99 6.34 -1.98 5.68 -3 5 C-1.125 1.125 -1.125 1.125 0 0 Z " fill="#282E5A" transform="translate(230,70)"/>
<path d="M0 0 C-0.3125 1.9375 -0.3125 1.9375 -1 4 C-1.99 4.33 -2.98 4.66 -4 5 C-4.66 3.68 -5.32 2.36 -6 1 C-4 0 -4 0 0 0 Z " fill="#2F396B" transform="translate(86,54)"/>
<path d="M0 0 C3.96 0 7.92 0 12 0 C12 0.33 12 0.66 12 1 C9.02148438 1.29296875 9.02148438 1.29296875 6.04296875 1.5859375 C3.70011858 1.92665391 3.70011858 1.92665391 1 4 C0.67 2.68 0.34 1.36 0 0 Z " fill="#243062" transform="translate(208,74)"/>
<path d="M0 0 C1.98 0 3.96 0 6 0 C5.34 1.65 4.68 3.3 4 5 C3.34 5 2.68 5 2 5 C1.34 3.35 0.68 1.7 0 0 Z " fill="#2E3A67" transform="translate(85,91)"/>
<path d="M0 0 C0.33 0 0.66 0 1 0 C1.33 3.96 1.66 7.92 2 12 C0.68 12 -0.64 12 -2 12 C-1.67 11.34 -1.34 10.68 -1 10 C-0.77377919 8.29636178 -0.59111527 6.58671299 -0.4375 4.875 C-0.35371094 3.96492188 -0.26992188 3.05484375 -0.18359375 2.1171875 C-0.12300781 1.41851562 -0.06242187 0.71984375 0 0 Z " fill="#242D59" transform="translate(270,63)"/>
<path d="M0 0 C1.65 0 3.3 0 5 0 C5 0.66 5 1.32 5 2 C5.66 2.33 6.32 2.66 7 3 C6.67 3.66 6.34 4.32 6 5 C5.34 5 4.68 5 4 5 C2 3 2 3 0 0 Z " fill="#2C3870" transform="translate(238,58)"/>
<path d="M0 0 C1.10844919 3.32534757 0.84454356 5.62182575 0 9 C-0.33 8.01 -0.66 7.02 -1 6 C-3.00016466 4.79117904 -3.00016466 4.79117904 -5 4 C-4.360625 3.71125 -3.72125 3.4225 -3.0625 3.125 C-0.84793921 2.17176549 -0.84793921 2.17176549 0 0 Z " fill="#353B59" transform="translate(108,49)"/>
<path d="M0 0 C0 0.33 0 0.66 0 1 C-1.258125 1.04125 -2.51625 1.0825 -3.8125 1.125 C-4.52019531 1.14820313 -5.22789063 1.17140625 -5.95703125 1.1953125 C-8 1 -8 1 -11 -1 C-6.70700357 -2.26264601 -4.12168689 -1.62950412 0 0 Z " fill="#273152" transform="translate(82,50)"/>
<path d="M0 0 C1.98 0 3.96 0 6 0 C5 2 5 2 3 3 C2.67 3.66 2.34 4.32 2 5 C0 4 0 4 -1 2 C-0.67 1.34 -0.34 0.68 0 0 Z " fill="#2F376A" transform="translate(138,59)"/>
<path d="" fill="#FFFFFF" transform="translate(0,0)"/>
<path d="" fill="#FFFFFF" transform="translate(0,0)"/>
<path d="" fill="#FFFFFF" transform="translate(0,0)"/>
<path d="" fill="#FFFFFF" transform="translate(0,0)"/>
<path d="" fill="#FFFFFF" transform="translate(0,0)"/>
<path d="" fill="#FFFFFF" transform="translate(0,0)"/>
<path d="" fill="#FFFFFF" transform="translate(0,0)"/>
<path d="" fill="#FFFFFF" transform="translate(0,0)"/>
<path d="" fill="#FFFFFF" transform="translate(0,0)"/>
<path d="" fill="#FFFFFF" transform="translate(0,0)"/>
<path d="" fill="#FFFFFF" transform="translate(0,0)"/>
<path d="" fill="#FFFFFF" transform="translate(0,0)"/>
<path d="" fill="#FFFFFF" transform="translate(0,0)"/>
<path d="" fill="#FFFFFF" transform="translate(0,0)"/>
<path d="" fill="#FFFFFF" transform="translate(0,0)"/>
<path d="" fill="#FFFFFF" transform="translate(0,0)"/>
<path d="" fill="#FFFFFF" transform="translate(0,0)"/>
<path d="" fill="#FFFFFF" transform="translate(0,0)"/>
<path d="" fill="#FFFFFF" transform="translate(0,0)"/>
<path d="" fill="#FFFFFF" transform="translate(0,0)"/>
<path d="" fill="#FFFFFF" transform="translate(0,0)"/>
<path d="" fill="#FFFFFF" transform="translate(0,0)"/>
<path d="" fill="#FFFFFF" transform="translate(0,0)"/>
<path d="" fill="#FFFFFF" transform="translate(0,0)"/>
<path d="" fill="#FFFFFF" transform="translate(0,0)"/>
<path d="" fill="#FFFFFF" transform="translate(0,0)"/>
<path d="" fill="#FFFFFF" transform="translate(0,0)"/>
<path d="" fill="#FFFFFF" transform="translate(0,0)"/>
<path d="" fill="#FFFFFF" transform="translate(0,0)"/>
<path d="" fill="#FFFFFF" transform="translate(0,0)"/>
<path d="" fill="#FFFFFF" transform="translate(0,0)"/>
<path d="" fill="#FFFFFF" transform="translate(0,0)"/>
<path d="" fill="#FFFFFF" transform="translate(0,0)"/>
<path d="" fill="#FFFFFF" transform="translate(0,0)"/>
<path d="" fill="#FFFFFF" transform="translate(0,0)"/>
<path d="" fill="#FFFFFF" transform="translate(0,0)"/>
<path d="" fill="#FFFFFF" transform="translate(0,0)"/>
<path d="" fill="#FFFFFF" transform="translate(0,0)"/>
<path d="" fill="#FFFFFF" transform="translate(0,0)"/>
<path d="" fill="#FFFFFF" transform="translate(0,0)"/>
<path d="" fill="#FFFFFF" transform="translate(0,0)"/>
<path d="" fill="#FFFFFF" transform="translate(0,0)"/>
<path d="" fill="#FFFFFF" transform="translate(0,0)"/>
<path d="" fill="#FFFFFF" transform="translate(0,0)"/>
<path d="" fill="#FFFFFF" transform="translate(0,0)"/>
<path d="" fill="#FFFFFF" transform="translate(0,0)"/>
<path d="" fill="#FFFFFF" transform="translate(0,0)"/>
<path d="" fill="#FFFFFF" transform="translate(0,0)"/>
<path d="" fill="#FFFFFF" transform="translate(0,0)"/>
<path d="" fill="#FFFFFF" transform="translate(0,0)"/>
<path d="" fill="#FFFFFF" transform="translate(0,0)"/>
<path d="" fill="#FFFFFF" transform="translate(0,0)"/>
<path d="" fill="#FFFFFF" transform="translate(0,0)"/>
<path d="" fill="#FFFFFF" transform="translate(0,0)"/>
<path d="" fill="#FFFFFF" transform="translate(0,0)"/>
<path d="" fill="#FFFFFF" transform="translate(0,0)"/>
<path d="" fill="#FFFFFF" transform="translate(0,0)"/>
<path d="" fill="#FFFFFF" transform="translate(0,0)"/>
<path d="" fill="#FFFFFF" transform="translate(0,0)"/>
<path d="" fill="#FFFFFF" transform="translate(0,0)"/>
<path d="" fill="#FFFFFF" transform="translate(0,0)"/>
<path d="" fill="#FFFFFF" transform="translate(0,0)"/>
<path d="" fill="#FFFFFF" transform="translate(0,0)"/>
<path d="" fill="#FFFFFF" transform="translate(0,0)"/>
</svg>
